<svg width="40" height="40" viewBox="0 0 40 40" fill="none" xmlns="http://www.w3.org/2000/svg">
  <!-- Q letter with code bracket integration -->
  <path d="M20 4C11.163 4 4 11.163 4 20C4 28.837 11.163 36 20 36C23.5 36 26.7 34.85 29.3 32.9L32 36L36 32L33.3 29.3C35.05 26.85 36 23.55 36 20C36 11.163 28.837 4 20 4ZM20 30C14.477 30 10 25.523 10 20C10 14.477 14.477 10 20 10C25.523 10 30 14.477 30 20C30 25.523 25.523 30 20 30Z" fill="currentColor"/>
  <!-- N integrated as code bracket < > -->
  <path d="M16 16L13 20L16 24" stroke="currentColor" stroke-width="2" stroke-linecap="round" stroke-linejoin="round"/>
  <path d="M24 16L27 20L24 24" stroke="currentColor" stroke-width="2" stroke-linecap="round" stroke-linejoin="round"/>
</svg>
