<svg viewBox="0 0 128 128" xmlns="http://www.w3.org/2000/svg">
<rect fill="#3178c6" height="128" rx="6" width="128"/>
<path clip-rule="evenodd" d="m74.2622 99.468v14.026c2.2724 1.168 4.9598 2.045 8.0625 2.629 3.1027.585 6.3728.877 9.8105.877 3.3503 0 6.533-.321 9.5478-.964 3.016-.643 5.659-1.702 7.932-3.178 2.272-1.476 4.071-3.404 5.397-5.786 1.325-2.381 1.988-5.325 1.988-8.8313 0-2.5421-.379-4.7701-1.136-6.6841-.758-1.9139-1.85-3.6159-3.278-5.1062-1.427-1.4902-3.139-2.827-5.134-4.0104-1.996-1.1834-4.246-2.3011-6.752-3.353-1.8-0.7753-3.4-1.5334-4.8-2.2742-1.4-0.7409-2.578-1.4818-3.534-2.2228-.956-.7409-1.682-1.5048-2.178-2.2914-.497-.7866-.745-1.6572-.745-2.6117 0-.895.218-1.7029.655-2.4238.436-.7208 1.058-1.3445 1.867-1.871.808-.5765 1.822-1.0203 3.04-1.3316 1.22-.3113 2.594-.467 4.123-.467 1.086 0 2.231.0872 3.436.2617 1.206.1744 2.42.4503 3.642.8275 1.222.3772 2.39.8507 3.502 1.4206 1.112.5765 2.12 1.2343 3.022 1.9798v-13.0175c-2.065-.8507-4.38-1.476-6.943-1.876-2.563-.3999-5.501-.5765-8.813-.5765-3.322 0-6.474.3707-9.457 1.1126-2.983.7418-5.601 1.8864-7.855 3.4335-2.254 1.547-4.025 3.5237-5.315 5.93-1.29 2.4063-1.936 5.2516-1.936 8.5765 0 4.0967 1.178 7.5835 3.534 10.4603 2.355 2.8768 5.869 5.2699 10.541 7.1793 1.857.7713 3.6 1.5247 5.228 2.2599 1.628.7352 3.053 1.4985 4.275 2.29 1.222.7911 2.18 1.6586 2.873 2.6015.693.9428 1.04 2.0071 1.04 3.1924 0 .8458-.203 1.6382-.61 2.3768-.405.7387-.991 1.3729-1.756 1.9028-.764.5298-1.716.9401-2.855 1.2309-1.139.2908-2.439.4362-3.899.4362-2.563 0-5.072-.4541-7.525-1.3624-2.454-.9083-4.757-2.2721-6.91-4.0916zm-28.7954-50.9807h16.0557v-12.5479h-46.7009v12.5479h16.0447v50.2039h14.6005z" fill="#fff" fill-rule="evenodd"/>
</svg>
